<svg aria-hidden="true" style="position: absolute; width: 0; height: 0; overflow: hidden;" version="1.1" xmlns="http://www.w3.org/2000/svg" xmlns:xlink="http://www.w3.org/1999/xlink">
<defs>
<symbol id="icon-arrow" viewBox="0 0 24 24">
<path d="M7.518 22.567c-0.149 0.149-0.335 0.223-0.54 0.223s-0.391-0.074-0.54-0.223c-0.298-0.298-0.298-0.781 0-1.079l9.488-9.488-9.488-9.488c-0.298-0.298-0.298-0.781 0-1.079s0.781-0.298 1.079 0l10.028 10.028c0.298 0.298 0.298 0.781 0 1.079l-10.028 10.028z"></path>
</symbol>
<symbol id="icon-location" viewBox="0 0 24 24">
<path d="M11.983 0c-4.85 0-8.796 3.946-8.796 8.796 0 2.228 1.404 5.376 4.173 9.356 2.024 2.91 4.014 5.161 4.098 5.256l0.525 0.592 0.525-0.592c0.084-0.094 2.074-2.346 4.098-5.256 2.769-3.981 4.173-7.128 4.173-9.356 0-4.85-3.946-8.796-8.796-8.796zM15.462 17.34c-1.368 1.968-2.751 3.662-3.479 4.526-0.727-0.862-2.104-2.549-3.471-4.515-2.566-3.688-3.922-6.647-3.922-8.555 0-4.076 3.316-7.393 7.393-7.393s7.393 3.316 7.393 7.393c0 1.907-1.353 4.861-3.914 8.544z"></path>
<path d="M11.982 3.251c-2.862 0-5.191 2.329-5.191 5.191s2.329 5.191 5.191 5.191c2.863 0 5.191-2.329 5.191-5.191s-2.329-5.191-5.191-5.191zM11.982 12.23c-2.089 0-3.788-1.699-3.788-3.788s1.699-3.788 3.788-3.788c2.089 0 3.788 1.699 3.788 3.788s-1.699 3.788-3.788 3.788z"></path>
</symbol>
<symbol id="icon-phone" viewBox="0 0 24 24">
<path d="M23.37 18.515l-4.858-3.24c-0.616-0.408-1.443-0.274-1.898 0.308l-1.415 1.819c-0.182 0.24-0.512 0.309-0.775 0.163l-0.269-0.148c-0.892-0.486-2.002-1.092-4.239-3.329s-2.844-3.349-3.33-4.239l-0.148-0.269c-0.148-0.263-0.080-0.595 0.16-0.778l1.818-1.415c0.582-0.456 0.716-1.282 0.309-1.899l-3.24-4.858c-0.417-0.628-1.255-0.816-1.901-0.428l-2.031 1.22c-0.638 0.375-1.106 0.983-1.307 1.696-0.731 2.665-0.181 7.265 6.595 14.042 5.39 5.39 9.403 6.839 12.161 6.839 0.635 0.003 1.267-0.080 1.88-0.245 0.713-0.2 1.321-0.668 1.696-1.307l1.221-2.030c0.389-0.646 0.201-1.484-0.428-1.902zM23.109 20.007l-1.219 2.031c-0.269 0.461-0.706 0.8-1.22 0.945-2.46 0.676-6.759 0.116-13.264-6.389s-7.064-10.803-6.389-13.264c0.146-0.514 0.485-0.952 0.947-1.221l2.031-1.219c0.28-0.169 0.644-0.087 0.825 0.186l3.237 4.857c0.177 0.267 0.119 0.626-0.134 0.824l-1.819 1.415c-0.553 0.423-0.711 1.189-0.371 1.797l0.144 0.262c0.511 0.937 1.147 2.104 3.467 4.423s3.486 2.955 4.423 3.466l0.263 0.145c0.608 0.341 1.373 0.183 1.797-0.371l1.415-1.818c0.198-0.252 0.556-0.31 0.824-0.134l4.857 3.24c0.273 0.181 0.354 0.545 0.185 0.825z"></path>
<path d="M13.6 4.002c3.753 0.004 6.795 3.046 6.799 6.799 0 0.221 0.179 0.4 0.4 0.4s0.4-0.179 0.4-0.4c-0.005-4.195-3.404-7.594-7.599-7.599-0.221 0-0.4 0.179-0.4 0.4s0.179 0.4 0.4 0.4z"></path>
<path d="M13.6 6.402c2.429 0.003 4.397 1.971 4.399 4.399 0 0.221 0.179 0.4 0.4 0.4s0.4-0.179 0.4-0.4c-0.003-2.87-2.329-5.196-5.199-5.199-0.221 0-0.4 0.179-0.4 0.4s0.179 0.4 0.4 0.4z"></path>
<path d="M13.6 8.802c1.104 0.001 1.998 0.896 2 2 0 0.221 0.179 0.4 0.4 0.4s0.4-0.179 0.4-0.4c-0.002-1.545-1.254-2.798-2.8-2.8-0.221 0-0.4 0.179-0.4 0.4s0.179 0.4 0.4 0.4z"></path>
</symbol>
<symbol id="icon-mail" viewBox="0 0 24 24">
<path d="M21.070 2.868h-18.135c-1.619 0-2.935 1.316-2.935 2.935v12.395c0 1.619 1.316 2.935 2.935 2.935h18.13c1.619 0 2.935-1.316 2.935-2.935v-12.39c0.005-1.619-1.311-2.94-2.93-2.94zM22.664 18.197c0 0.879-0.715 1.594-1.594 1.594h-18.135c-0.879 0-1.594-0.715-1.594-1.594v-12.39c0-0.879 0.715-1.594 1.594-1.594h18.13c0.879 0 1.594 0.715 1.594 1.594v12.39h0.005z"></path>
<path d="M15.136 11.846l5.87-5.264c0.273-0.248 0.298-0.67 0.050-0.948-0.248-0.273-0.67-0.298-0.948-0.050l-8.094 7.265-1.579-1.41c-0.005-0.005-0.010-0.010-0.010-0.015-0.035-0.035-0.070-0.065-0.109-0.094l-6.426-5.75c-0.278-0.248-0.7-0.223-0.948 0.055s-0.223 0.7 0.055 0.948l5.939 5.309-5.914 5.537c-0.268 0.253-0.283 0.675-0.030 0.948 0.134 0.139 0.313 0.214 0.492 0.214 0.164 0 0.328-0.060 0.457-0.179l6.004-5.616 1.629 1.455c0.129 0.114 0.288 0.169 0.447 0.169s0.323-0.060 0.447-0.174l1.673-1.5 5.969 5.671c0.129 0.124 0.298 0.184 0.462 0.184 0.179 0 0.352-0.070 0.487-0.209 0.253-0.268 0.243-0.695-0.025-0.948l-5.894-5.596z"></path>
</symbol>
<symbol id="icon-code" viewBox="0 0 24 24">
<path d="M9.469 16.819c-0.091 0-0.182-0.031-0.256-0.095l-2.564-2.183c-0.088-0.075-0.139-0.186-0.139-0.302s0.051-0.226 0.139-0.302l2.564-2.183c0.167-0.142 0.417-0.122 0.559 0.045s0.122 0.417-0.045 0.558l-2.21 1.882 2.21 1.882c0.167 0.142 0.187 0.392 0.045 0.558-0.078 0.092-0.19 0.139-0.302 0.139z"></path>
<path d="M14.531 16.819c-0.112 0-0.224-0.047-0.302-0.14-0.142-0.166-0.122-0.417 0.045-0.558l2.21-1.882-2.21-1.882c-0.167-0.142-0.187-0.392-0.045-0.558s0.392-0.187 0.558-0.045l2.564 2.183c0.088 0.075 0.139 0.186 0.139 0.302s-0.051 0.226-0.139 0.302l-2.564 2.183c-0.074 0.063-0.166 0.095-0.256 0.095z"></path>
<path d="M11.092 18.456c-0.027 0-0.055-0.003-0.082-0.009-0.214-0.045-0.351-0.255-0.306-0.469l1.598-7.587c0.045-0.214 0.255-0.351 0.469-0.306s0.351 0.255 0.306 0.469l-1.598 7.587c-0.039 0.187-0.204 0.315-0.387 0.315z"></path>
<path d="M21.34 22.59h-18.679c-1.467 0-2.66-1.193-2.66-2.66v-15.854c0-1.467 1.194-2.66 2.66-2.66h18.679c1.467 0 2.66 1.194 2.66 2.66v15.854c0 1.467-1.194 2.66-2.66 2.66zM2.66 2.208c-1.030 0-1.868 0.838-1.868 1.868v15.854c0 1.030 0.838 1.868 1.868 1.868h18.679c1.030 0 1.868-0.838 1.868-1.868v-15.854c0-1.030-0.838-1.868-1.868-1.868h-18.679z"></path>
<path d="M23.604 7.76h-23.208c-0.219 0-0.396-0.177-0.396-0.396s0.177-0.396 0.396-0.396h23.208c0.219 0 0.396 0.178 0.396 0.396s-0.177 0.396-0.396 0.396z"></path>
<path d="M6.77 5.864c-0.691 0-1.254-0.563-1.254-1.254s0.563-1.254 1.254-1.254c0.691 0 1.254 0.563 1.254 1.254s-0.563 1.254-1.254 1.254zM6.77 4.148c-0.254 0-0.461 0.207-0.461 0.461s0.207 0.461 0.461 0.461c0.254 0 0.461-0.207 0.461-0.461s-0.207-0.461-0.461-0.461z"></path>
<path d="M2.918 5.852c-0.691 0-1.254-0.563-1.254-1.254s0.563-1.254 1.254-1.254c0.691 0 1.254 0.563 1.254 1.254s-0.563 1.254-1.254 1.254zM2.918 4.136c-0.254 0-0.461 0.207-0.461 0.461s0.207 0.461 0.461 0.461c0.254 0 0.461-0.207 0.461-0.461s-0.207-0.461-0.461-0.461z"></path>
<path d="M10.622 5.876c-0.691 0-1.254-0.563-1.254-1.254s0.563-1.254 1.254-1.254c0.691 0 1.254 0.563 1.254 1.254s-0.563 1.254-1.254 1.254zM10.622 4.16c-0.254 0-0.461 0.207-0.461 0.461s0.207 0.461 0.461 0.461c0.255 0 0.462-0.207 0.462-0.461s-0.207-0.461-0.462-0.461z"></path>
</symbol>
<symbol id="icon-maths" viewBox="0 0 24 24">
<path d="M23.6 0h-18c-0.221 0-0.4 0.179-0.4 0.4v6h0.8v-5.6h17.2v22c0.004 0.21-0.158 0.387-0.368 0.4-0.034 0-0.069-0.003-0.103-0.004-0.071-0.002-0.142-0.004-0.211-0.011-0.006 0-0.012 0-0.018-0.002-1.306-0.143-2.338-1.174-2.482-2.48 0-0.006-0.002-0.012-0.003-0.017-0.010-0.095-0.014-0.191-0.014-0.286v-0.8c0-0.221-0.179-0.4-0.4-0.4h-13.6v-7.2h-0.8v7.2h-3.2c-0.221 0-0.4 0.179-0.4 0.4v0.8c0.002 1.987 1.613 3.598 3.6 3.6h17.64c0.649-0.017 1.165-0.551 1.16-1.2v-22.4c0-0.221-0.179-0.4-0.4-0.4zM5.2 23.2c-1.546-0.002-2.798-1.254-2.8-2.8v-0.4h16.8v0.4c0.001 0.132 0.008 0.264 0.023 0.395 0.004 0.035 0.010 0.068 0.015 0.103 0.013 0.097 0.029 0.193 0.050 0.288 0.007 0.033 0.016 0.066 0.025 0.099 0.024 0.096 0.052 0.191 0.084 0.285 0.009 0.027 0.019 0.053 0.029 0.080 0.036 0.099 0.078 0.196 0.123 0.292 0.010 0.020 0.018 0.040 0.028 0.058 0.050 0.101 0.105 0.2 0.165 0.296 0.008 0.013 0.015 0.026 0.023 0.040 0.065 0.102 0.136 0.201 0.211 0.296l0.013 0.017c0.087 0.11 0.181 0.214 0.28 0.313 0.086 0.085 0.175 0.165 0.268 0.24l-15.337-0.001z"></path>
<path d="M13.2 11.2c0.106 0 0.208-0.042 0.283-0.117l1.6-1.6c0.156-0.156 0.156-0.409 0-0.566l-1.6-1.6c-0.075-0.075-0.177-0.117-0.283-0.117h-11.2c-1.105 0-2 0.895-2 2s0.895 2 2 2h11.2zM13.097 8.062l1.138 1.138-1.138 1.138-0.284-1.138 0.284-1.138zM3.2 8h9.088l-0.2 0.8h-8.088v0.8h8.088l0.2 0.8h-9.088v-2.4zM0.8 9.2c0-0.663 0.537-1.2 1.2-1.2h0.4v2.4h-0.4c-0.663 0-1.2-0.537-1.2-1.2z"></path>
<path d="M9.2 17.2h12c0.221 0 0.4-0.179 0.4-0.4v-12c-0-0.221-0.179-0.4-0.4-0.4-0.106 0-0.208 0.042-0.283 0.117l-12 12c-0.156 0.156-0.156 0.41 0 0.566 0.075 0.075 0.177 0.117 0.283 0.117zM20.799 5.766v1.034h-0.8v0.8h0.8v0.8h-0.8v0.8h0.8v0.8h-0.8v0.8h0.8v0.8h-0.8v0.8h0.8v0.8h-0.8v0.8h0.8v0.8h-0.8v0.8h0.8v0.8h-0.8v-0.8h-0.8v0.8h-0.8v-0.8h-0.8v0.8h-0.8v-0.8h-0.8v0.8h-0.8v-0.8h-0.8v0.8h-0.8v-0.8h-0.8v0.8h-0.8v-0.8h-0.8v0.8h-1.034l10.634-10.634z"></path>
<path d="M14.994 14.8h3.806c0.221 0 0.4-0.179 0.4-0.4v-3.806c0-0.221-0.179-0.4-0.4-0.4-0.106 0-0.208 0.042-0.283 0.117l-3.806 3.806c-0.156 0.156-0.156 0.409 0 0.566 0.075 0.075 0.177 0.117 0.283 0.117zM18.4 11.56v2.44h-2.44l2.44-2.44z"></path>
<path d="M18.4 2.4h-8v0.8h8v-0.8z"></path>
<path d="M19.6 4h-10.4v0.8h10.4v-0.8z"></path>
<path d="M9.2 12.4h-2.4v0.8h2.4v-0.8z"></path>
<path d="M8.4 14h-1.6v0.8h1.6v-0.8z"></path>
</symbol>
</defs>
</svg>
